%TF.GenerationSoftware,KiCad,Pcbnew,8.0.0-8.0.0-1~ubuntu22.04.1*%
%TF.CreationDate,2024-03-19T22:30:41+08:00*%
%TF.ProjectId,ble_midi_hardware,626c655f-6d69-4646-995f-686172647761,rev?*%
%TF.SameCoordinates,Original*%
%TF.FileFunction,Soldermask,Top*%
%TF.FilePolarity,Negative*%
%FSLAX46Y46*%
G04 Gerber Fmt 4.6, Leading zero omitted, Abs format (unit mm)*
G04 Created by KiCad (PCBNEW 8.0.0-8.0.0-1~ubuntu22.04.1) date 2024-03-19 22:30:41*
%MOMM*%
%LPD*%
G01*
G04 APERTURE LIST*
G04 Aperture macros list*
%AMRoundRect*
0 Rectangle with rounded corners*
0 $1 Rounding radius*
0 $2 $3 $4 $5 $6 $7 $8 $9 X,Y pos of 4 corners*
0 Add a 4 corners polygon primitive as box body*
4,1,4,$2,$3,$4,$5,$6,$7,$8,$9,$2,$3,0*
0 Add four circle primitives for the rounded corners*
1,1,$1+$1,$2,$3*
1,1,$1+$1,$4,$5*
1,1,$1+$1,$6,$7*
1,1,$1+$1,$8,$9*
0 Add four rect primitives between the rounded corners*
20,1,$1+$1,$2,$3,$4,$5,0*
20,1,$1+$1,$4,$5,$6,$7,0*
20,1,$1+$1,$6,$7,$8,$9,0*
20,1,$1+$1,$8,$9,$2,$3,0*%
G04 Aperture macros list end*
%ADD10R,1.700000X1.700000*%
%ADD11O,1.700000X1.700000*%
%ADD12RoundRect,0.225000X0.250000X-0.225000X0.250000X0.225000X-0.250000X0.225000X-0.250000X-0.225000X0*%
%ADD13R,2.000000X1.500000*%
%ADD14R,2.000000X3.800000*%
%ADD15R,1.550000X0.600000*%
%ADD16RoundRect,0.225000X0.225000X0.250000X-0.225000X0.250000X-0.225000X-0.250000X0.225000X-0.250000X0*%
G04 APERTURE END LIST*
D10*
%TO.C,J2*%
X107200000Y-62240000D03*
D11*
X107200000Y-64780000D03*
X107200000Y-67320000D03*
X107200000Y-69860000D03*
X107200000Y-72400000D03*
X107200000Y-74940000D03*
X107200000Y-77480000D03*
X107200000Y-80020000D03*
X107200000Y-82560000D03*
X107200000Y-85100000D03*
X107200000Y-87640000D03*
X107200000Y-90180000D03*
X107200000Y-92720000D03*
X107200000Y-95260000D03*
X107200000Y-97800000D03*
%TD*%
D12*
%TO.C,C2*%
X155011000Y-94706400D03*
X155011000Y-93156400D03*
%TD*%
D13*
%TO.C,U4*%
X147066000Y-85800000D03*
X147066000Y-88100000D03*
D14*
X153366000Y-88100000D03*
D13*
X147066000Y-90400000D03*
%TD*%
D10*
%TO.C,J3*%
X131200000Y-62240000D03*
D11*
X131200000Y-64780000D03*
X131200000Y-67320000D03*
X131200000Y-69860000D03*
X131200000Y-72400000D03*
X131200000Y-74940000D03*
X131200000Y-77480000D03*
X131200000Y-80020000D03*
X131200000Y-82560000D03*
X131200000Y-85100000D03*
X131200000Y-87640000D03*
X131200000Y-90180000D03*
X131200000Y-92720000D03*
X131200000Y-95260000D03*
X131200000Y-97800000D03*
%TD*%
D15*
%TO.C,U2*%
X123530200Y-72127800D03*
X123530200Y-70857800D03*
X123530200Y-69587800D03*
X123530200Y-68317800D03*
X123530200Y-67047800D03*
X123530200Y-65777800D03*
X123530200Y-64507800D03*
X123530200Y-63237800D03*
X118130200Y-63237800D03*
X118130200Y-64507800D03*
X118130200Y-65777800D03*
X118130200Y-67047800D03*
X118130200Y-68317800D03*
X118130200Y-69587800D03*
X118130200Y-70857800D03*
X118130200Y-72127800D03*
%TD*%
D13*
%TO.C,U3*%
X147261000Y-96831400D03*
X147261000Y-99131400D03*
D14*
X153561000Y-99131400D03*
D13*
X147261000Y-101431400D03*
%TD*%
D10*
%TO.C,J1*%
X146710400Y-112623600D03*
D11*
X149250400Y-112623600D03*
%TD*%
D16*
%TO.C,C3*%
X156061000Y-82101400D03*
X154511000Y-82101400D03*
%TD*%
D15*
%TO.C,U1*%
X118080200Y-76261024D03*
X118080200Y-77531024D03*
X118080200Y-78801024D03*
X118080200Y-80071024D03*
X118080200Y-81341024D03*
X118080200Y-82611024D03*
X118080200Y-83881024D03*
X118080200Y-85151024D03*
X123480200Y-85151024D03*
X123480200Y-83881024D03*
X123480200Y-82611024D03*
X123480200Y-81341024D03*
X123480200Y-80071024D03*
X123480200Y-78801024D03*
X123480200Y-77531024D03*
X123480200Y-76261024D03*
%TD*%
D10*
%TO.C,J4*%
X137205000Y-110350000D03*
D11*
X134665000Y-110350000D03*
X132125000Y-110350000D03*
X129585000Y-110350000D03*
X127045000Y-110350000D03*
X124505000Y-110350000D03*
X121965000Y-110350000D03*
X119425000Y-110350000D03*
X116885000Y-110350000D03*
X114345000Y-110350000D03*
X111805000Y-110350000D03*
X109265000Y-110350000D03*
X106725000Y-110350000D03*
X104185000Y-110350000D03*
X101645000Y-110350000D03*
X99105000Y-110350000D03*
%TD*%
D12*
%TO.C,C1*%
X142261000Y-91206400D03*
X142261000Y-89656400D03*
%TD*%
M02*
