%TF.GenerationSoftware,KiCad,Pcbnew,8.0.0-8.0.0-1~ubuntu22.04.1*%
%TF.CreationDate,2024-03-19T22:30:40+08:00*%
%TF.ProjectId,ble_midi_hardware,626c655f-6d69-4646-995f-686172647761,rev?*%
%TF.SameCoordinates,Original*%
%TF.FileFunction,Copper,L2,Bot*%
%TF.FilePolarity,Positive*%
%FSLAX46Y46*%
G04 Gerber Fmt 4.6, Leading zero omitted, Abs format (unit mm)*
G04 Created by KiCad (PCBNEW 8.0.0-8.0.0-1~ubuntu22.04.1) date 2024-03-19 22:30:40*
%MOMM*%
%LPD*%
G01*
G04 APERTURE LIST*
%TA.AperFunction,ComponentPad*%
%ADD10R,1.700000X1.700000*%
%TD*%
%TA.AperFunction,ComponentPad*%
%ADD11O,1.700000X1.700000*%
%TD*%
%TA.AperFunction,ViaPad*%
%ADD12C,0.800000*%
%TD*%
%TA.AperFunction,Conductor*%
%ADD13C,0.250000*%
%TD*%
G04 APERTURE END LIST*
D10*
%TO.P,J2,1,Pin_1*%
%TO.N,unconnected-(J2-Pin_1-Pad1)*%
X107200000Y-62240000D03*
D11*
%TO.P,J2,2,Pin_2*%
%TO.N,unconnected-(J2-Pin_2-Pad2)*%
X107200000Y-64780000D03*
%TO.P,J2,3,Pin_3*%
%TO.N,unconnected-(J2-Pin_3-Pad3)*%
X107200000Y-67320000D03*
%TO.P,J2,4,Pin_4*%
%TO.N,unconnected-(J2-Pin_4-Pad4)*%
X107200000Y-69860000D03*
%TO.P,J2,5,Pin_5*%
%TO.N,/IN3*%
X107200000Y-72400000D03*
%TO.P,J2,6,Pin_6*%
%TO.N,/IN2*%
X107200000Y-74940000D03*
%TO.P,J2,7,Pin_7*%
%TO.N,/IN1*%
X107200000Y-77480000D03*
%TO.P,J2,8,Pin_8*%
%TO.N,/RCK2*%
X107200000Y-80020000D03*
%TO.P,J2,9,Pin_9*%
%TO.N,/SDA2*%
X107200000Y-82560000D03*
%TO.P,J2,10,Pin_10*%
%TO.N,/SCK2*%
X107200000Y-85100000D03*
%TO.P,J2,11,Pin_11*%
%TO.N,/RCK1*%
X107200000Y-87640000D03*
%TO.P,J2,12,Pin_12*%
%TO.N,/SDA1*%
X107200000Y-90180000D03*
%TO.P,J2,13,Pin_13*%
%TO.N,/SCK1*%
X107200000Y-92720000D03*
%TO.P,J2,14,Pin_14*%
%TO.N,/GND*%
X107200000Y-95260000D03*
%TO.P,J2,15,Pin_15*%
%TO.N,/5V*%
X107200000Y-97800000D03*
%TD*%
D10*
%TO.P,J3,1,Pin_1*%
%TO.N,unconnected-(J3-Pin_1-Pad1)*%
X131200000Y-62240000D03*
D11*
%TO.P,J3,2,Pin_2*%
%TO.N,unconnected-(J3-Pin_2-Pad2)*%
X131200000Y-64780000D03*
%TO.P,J3,3,Pin_3*%
%TO.N,unconnected-(J3-Pin_3-Pad3)*%
X131200000Y-67320000D03*
%TO.P,J3,4,Pin_4*%
%TO.N,unconnected-(J3-Pin_4-Pad4)*%
X131200000Y-69860000D03*
%TO.P,J3,5,Pin_5*%
%TO.N,unconnected-(J3-Pin_5-Pad5)*%
X131200000Y-72400000D03*
%TO.P,J3,6,Pin_6*%
%TO.N,unconnected-(J3-Pin_6-Pad6)*%
X131200000Y-74940000D03*
%TO.P,J3,7,Pin_7*%
%TO.N,unconnected-(J3-Pin_7-Pad7)*%
X131200000Y-77480000D03*
%TO.P,J3,8,Pin_8*%
%TO.N,unconnected-(J3-Pin_8-Pad8)*%
X131200000Y-80020000D03*
%TO.P,J3,9,Pin_9*%
%TO.N,unconnected-(J3-Pin_9-Pad9)*%
X131200000Y-82560000D03*
%TO.P,J3,10,Pin_10*%
%TO.N,unconnected-(J3-Pin_10-Pad10)*%
X131200000Y-85100000D03*
%TO.P,J3,11,Pin_11*%
%TO.N,unconnected-(J3-Pin_11-Pad11)*%
X131200000Y-87640000D03*
%TO.P,J3,12,Pin_12*%
%TO.N,unconnected-(J3-Pin_12-Pad12)*%
X131200000Y-90180000D03*
%TO.P,J3,13,Pin_13*%
%TO.N,unconnected-(J3-Pin_13-Pad13)*%
X131200000Y-92720000D03*
%TO.P,J3,14,Pin_14*%
%TO.N,/IN5*%
X131200000Y-95260000D03*
%TO.P,J3,15,Pin_15*%
%TO.N,/IN4*%
X131200000Y-97800000D03*
%TD*%
D10*
%TO.P,J1,1,Pin_1*%
%TO.N,/GND*%
X146710400Y-112623600D03*
D11*
%TO.P,J1,2,Pin_2*%
%TO.N,/\u96FB\u6E90/VIN*%
X149250400Y-112623600D03*
%TD*%
D10*
%TO.P,J4,1,Pin_1*%
%TO.N,/OUT1*%
X137205000Y-110350000D03*
D11*
%TO.P,J4,2,Pin_2*%
%TO.N,/OUT2*%
X134665000Y-110350000D03*
%TO.P,J4,3,Pin_3*%
%TO.N,/OUT3*%
X132125000Y-110350000D03*
%TO.P,J4,4,Pin_4*%
%TO.N,/OUT4*%
X129585000Y-110350000D03*
%TO.P,J4,5,Pin_5*%
%TO.N,/OUT5*%
X127045000Y-110350000D03*
%TO.P,J4,6,Pin_6*%
%TO.N,/OUT6*%
X124505000Y-110350000D03*
%TO.P,J4,7,Pin_7*%
%TO.N,/OUT7*%
X121965000Y-110350000D03*
%TO.P,J4,8,Pin_8*%
%TO.N,/OUT8*%
X119425000Y-110350000D03*
%TO.P,J4,9,Pin_9*%
%TO.N,/OUT9*%
X116885000Y-110350000D03*
%TO.P,J4,10,Pin_10*%
%TO.N,/OUT10*%
X114345000Y-110350000D03*
%TO.P,J4,11,Pin_11*%
%TO.N,/IN1*%
X111805000Y-110350000D03*
%TO.P,J4,12,Pin_12*%
%TO.N,/IN2*%
X109265000Y-110350000D03*
%TO.P,J4,13,Pin_13*%
%TO.N,/IN3*%
X106725000Y-110350000D03*
%TO.P,J4,14,Pin_14*%
%TO.N,/IN4*%
X104185000Y-110350000D03*
%TO.P,J4,15,Pin_15*%
%TO.N,/IN5*%
X101645000Y-110350000D03*
%TO.P,J4,16,Pin_16*%
%TO.N,unconnected-(J4-Pin_16-Pad16)*%
X99105000Y-110350000D03*
%TD*%
D12*
%TO.N,/IN1*%
X110200000Y-107400000D03*
%TO.N,/RCK2*%
X112200000Y-74800000D03*
%TO.N,/SDA2*%
X113600000Y-74800000D03*
%TO.N,/RCK1*%
X111000000Y-87132800D03*
X125780200Y-81332800D03*
%TO.N,/GND*%
X121800000Y-80000000D03*
X111200000Y-86000000D03*
X119800000Y-85000000D03*
X118000000Y-86200000D03*
X109400000Y-86600000D03*
%TO.N,/5V*%
X120800000Y-73000000D03*
X116600000Y-64400000D03*
X125200000Y-86400000D03*
X119800000Y-64600000D03*
X106000000Y-103000000D03*
X156060000Y-87260000D03*
X120800000Y-75600000D03*
%TO.N,/OUT1*%
X128600000Y-77400000D03*
X128600000Y-77400000D03*
X125200000Y-77400000D03*
%TO.N,/OUT2*%
X114000000Y-88600000D03*
%TO.N,/OUT3*%
X115000000Y-88600000D03*
X127600000Y-98600000D03*
%TO.N,/OUT4*%
X121400000Y-89400000D03*
X126000000Y-97000000D03*
%TO.N,/OUT5*%
X116175048Y-91824951D03*
%TO.N,/OUT6*%
X122800000Y-94600000D03*
X117000000Y-89000000D03*
%TO.N,/OUT7*%
X117000000Y-93200000D03*
X119800000Y-89000000D03*
X117200000Y-98200000D03*
%TO.N,/OUT8*%
X120200000Y-91000000D03*
X118000000Y-99600000D03*
X118000000Y-94000000D03*
X119000000Y-88200000D03*
X118000000Y-104400000D03*
%TO.N,/OUT9*%
X116800000Y-71600000D03*
X113000000Y-88600000D03*
X114800000Y-76600000D03*
%TO.N,/OUT10*%
X116000000Y-73800000D03*
%TD*%
D13*
%TO.N,/5V*%
X130000000Y-58800000D02*
X129500000Y-59300000D01*
X159613600Y-87274400D02*
X159613600Y-82613600D01*
X158902400Y-87985600D02*
X159613600Y-87274400D01*
X156785600Y-87985600D02*
X158902400Y-87985600D01*
X135800000Y-58800000D02*
X130000000Y-58800000D01*
X159613600Y-82613600D02*
X135800000Y-58800000D01*
X156060000Y-87260000D02*
X156785600Y-87985600D01*
%TO.N,/IN1*%
X109400000Y-105496396D02*
X109400000Y-103800000D01*
X105400000Y-99800000D02*
X105400000Y-79280000D01*
X110200000Y-107400000D02*
X110200000Y-106296396D01*
X105400000Y-79280000D02*
X107200000Y-77480000D01*
X109400000Y-103800000D02*
X105400000Y-99800000D01*
X110200000Y-106296396D02*
X109400000Y-105496396D01*
%TO.N,/RCK2*%
X112200000Y-74800000D02*
X112200000Y-75020000D01*
X112200000Y-75020000D02*
X107200000Y-80020000D01*
%TO.N,/SDA2*%
X109600000Y-78800000D02*
X109600000Y-80160000D01*
X109600000Y-80160000D02*
X107200000Y-82560000D01*
X113600000Y-74800000D02*
X109600000Y-78800000D01*
%TO.N,/RCK1*%
X126580200Y-82532800D02*
X125780200Y-81332800D01*
X122780200Y-87132800D02*
X126580200Y-83332800D01*
X125780200Y-81332800D02*
X125669431Y-81622032D01*
X126580200Y-83332800D02*
X126580200Y-82532800D01*
X111000000Y-87132800D02*
X122780200Y-87132800D01*
%TO.N,/GND*%
X119800000Y-85200000D02*
X119800000Y-85200000D01*
X120000000Y-81800000D02*
X120000000Y-83400000D01*
X119800000Y-85000000D02*
X119800000Y-85200000D01*
X118000000Y-86200000D02*
X111200000Y-86200000D01*
X121800000Y-80000000D02*
X120000000Y-81800000D01*
X120000000Y-85000000D02*
X119800000Y-85000000D01*
X109400000Y-93060000D02*
X107200000Y-95260000D01*
X111000000Y-86000000D02*
X111000000Y-86000000D01*
X120000000Y-85000000D02*
X120000000Y-85000000D01*
X111200000Y-86000000D02*
X111000000Y-86000000D01*
X111200000Y-86200000D02*
X111200000Y-86200000D01*
X120000000Y-83400000D02*
X120000000Y-85000000D01*
X111200000Y-86200000D02*
X111200000Y-86000000D01*
X109400000Y-86600000D02*
X109400000Y-93060000D01*
%TO.N,/5V*%
X113200000Y-59000000D02*
X114512500Y-60312500D01*
X129325000Y-82275000D02*
X129325000Y-59475000D01*
X129325000Y-59475000D02*
X129500000Y-59300000D01*
X101600000Y-102000000D02*
X101600000Y-62200000D01*
X116600000Y-62400000D02*
X116600000Y-64400000D01*
X120800000Y-65600000D02*
X119800000Y-64600000D01*
X101600000Y-62200000D02*
X104800000Y-59000000D01*
X129500000Y-59300000D02*
X115525000Y-59300000D01*
X115525000Y-59300000D02*
X114512500Y-60312500D01*
X120800000Y-74000000D02*
X120800000Y-75600000D01*
X104800000Y-59000000D02*
X113200000Y-59000000D01*
X120800000Y-73000000D02*
X120800000Y-74000000D01*
X114512500Y-60312500D02*
X115800000Y-61600000D01*
X102600000Y-103000000D02*
X101600000Y-102000000D01*
X115800000Y-61600000D02*
X116600000Y-62400000D01*
X120800000Y-73000000D02*
X120800000Y-65600000D01*
X106000000Y-103000000D02*
X102600000Y-103000000D01*
X125200000Y-86400000D02*
X129325000Y-82275000D01*
%TO.N,/OUT1*%
X128600000Y-77400000D02*
X125200000Y-77400000D01*
%TO.N,/OUT2*%
X129774695Y-104400000D02*
X133200000Y-104400000D01*
X114000000Y-88625305D02*
X129774695Y-104400000D01*
X134660000Y-105860000D02*
X134660000Y-109800000D01*
X133200000Y-104400000D02*
X134660000Y-105860000D01*
X114000000Y-88600000D02*
X114000000Y-88625305D01*
%TO.N,/OUT3*%
X115000000Y-88600000D02*
X115000000Y-88825305D01*
X115000000Y-88825305D02*
X124774695Y-98600000D01*
X124774695Y-98600000D02*
X127600000Y-98600000D01*
%TO.N,/OUT4*%
X126000000Y-94000000D02*
X126000000Y-97000000D01*
X121400000Y-89400000D02*
X126000000Y-94000000D01*
%TO.N,/OUT5*%
X116175048Y-98935048D02*
X127040000Y-109800000D01*
X116175048Y-91824951D02*
X116175048Y-98935048D01*
%TO.N,/OUT6*%
X122800000Y-94800000D02*
X122800000Y-94800000D01*
X122600000Y-94600000D02*
X122800000Y-94600000D01*
X117000000Y-89000000D02*
X122600000Y-94600000D01*
X122800000Y-94600000D02*
X122800000Y-94800000D01*
%TO.N,/OUT7*%
X117200000Y-98200000D02*
X117200000Y-98400000D01*
X117000000Y-93200000D02*
X117000000Y-98200000D01*
X117000000Y-98200000D02*
X117000000Y-98200000D01*
X117000000Y-98200000D02*
X117200000Y-98200000D01*
X117200000Y-98400000D02*
X117200000Y-98400000D01*
%TO.N,/OUT8*%
X118000000Y-108380000D02*
X119420000Y-109800000D01*
X119000000Y-89800000D02*
X120200000Y-91000000D01*
X119000000Y-88200000D02*
X119000000Y-89800000D01*
X118000000Y-99600000D02*
X118000000Y-99800000D01*
X118000000Y-104400000D02*
X118000000Y-108380000D01*
X118000000Y-94000000D02*
X118000000Y-99600000D01*
%TO.N,/OUT9*%
X114800000Y-73600000D02*
X116800000Y-71600000D01*
X114800000Y-76600000D02*
X114800000Y-73600000D01*
X116880000Y-109800000D02*
X112800000Y-105720000D01*
X112800000Y-105720000D02*
X113000000Y-88600000D01*
X116800000Y-71600000D02*
X116700000Y-71700000D01*
X113000000Y-88600000D02*
X112800000Y-88600000D01*
%TO.N,/OUT10*%
X116000000Y-80087695D02*
X110887695Y-85200000D01*
X110400000Y-104600000D02*
X111200000Y-105400000D01*
X110887695Y-85200000D02*
X110800000Y-85200000D01*
X110275000Y-85725000D02*
X110275000Y-87433105D01*
X111200000Y-106660000D02*
X114340000Y-109800000D01*
X111200000Y-105400000D02*
X111200000Y-106660000D01*
X116000000Y-73800000D02*
X116000000Y-80087695D01*
X110275000Y-87433105D02*
X110400000Y-87558105D01*
X110800000Y-85200000D02*
X110275000Y-85725000D01*
X110400000Y-87558105D02*
X110400000Y-104600000D01*
%TD*%
M02*
