M48
; DRILL file {KiCad 8.0.0-8.0.0-1~ubuntu22.04.1} date 2024-03-19T22:30:44+0800
; FORMAT={-:-/ absolute / inch / decimal}
; #@! TF.CreationDate,2024-03-19T22:30:44+08:00
; #@! TF.GenerationSoftware,Kicad,Pcbnew,8.0.0-8.0.0-1~ubuntu22.04.1
; #@! TF.FileFunction,Plated,1,2,PTH
FMAT,2
INCH
; #@! TA.AperFunction,Plated,PTH,ViaDrill
T1C0.0157
; #@! TA.AperFunction,Plated,PTH,ComponentDrill
T2C0.0394
%
G90
G05
T1
X4.1732Y-4.0551
X4.3071Y-3.4094
X4.3386Y-4.2283
X4.3701Y-3.4304
X4.378Y-3.3858
X4.4173Y-2.9449
X4.4488Y-3.4882
X4.4724Y-2.9449
X4.4882Y-3.4882
X4.5197Y-3.0157
X4.5276Y-3.4882
X4.5669Y-2.9055
X4.5738Y-3.6152
X4.5906Y-2.5354
X4.5984Y-2.8189
X4.6063Y-3.5039
X4.6063Y-3.6693
X4.6142Y-3.8661
X4.6457Y-3.3937
X4.6457Y-3.7008
X4.6457Y-3.9213
X4.6457Y-4.1102
X4.685Y-3.4724
X4.7165Y-2.5433
X4.7165Y-3.3465
X4.7165Y-3.5039
X4.7323Y-3.5827
X4.7559Y-2.874
X4.7559Y-2.9764
X4.7795Y-3.5197
X4.7953Y-3.1496
X4.8346Y-3.7244
X4.9291Y-3.0472
X4.9291Y-3.4016
X4.952Y-3.2021
X4.9606Y-3.8189
X5.0236Y-3.8819
X5.063Y-3.0472
X5.063Y-3.0472
X6.1441Y-3.4354
T2
X3.9018Y-4.3445
X4.0018Y-4.3445
X4.1018Y-4.3445
X4.2018Y-4.3445
X4.2205Y-2.4504
X4.2205Y-2.5504
X4.2205Y-2.6504
X4.2205Y-2.7504
X4.2205Y-2.8504
X4.2205Y-2.9504
X4.2205Y-3.0504
X4.2205Y-3.1504
X4.2205Y-3.2504
X4.2205Y-3.3504
X4.2205Y-3.4504
X4.2205Y-3.5504
X4.2205Y-3.6504
X4.2205Y-3.7504
X4.2205Y-3.8504
X4.3018Y-4.3445
X4.4018Y-4.3445
X4.5018Y-4.3445
X4.6018Y-4.3445
X4.7018Y-4.3445
X4.8018Y-4.3445
X4.9018Y-4.3445
X5.0018Y-4.3445
X5.1018Y-4.3445
X5.1654Y-2.4504
X5.1654Y-2.5504
X5.1654Y-2.6504
X5.1654Y-2.7504
X5.1654Y-2.8504
X5.1654Y-2.9504
X5.1654Y-3.0504
X5.1654Y-3.1504
X5.1654Y-3.2504
X5.1654Y-3.3504
X5.1654Y-3.4504
X5.1654Y-3.5504
X5.1654Y-3.6504
X5.1654Y-3.7504
X5.1654Y-3.8504
X5.2018Y-4.3445
X5.3018Y-4.3445
X5.4018Y-4.3445
X5.776Y-4.434
X5.876Y-4.434
M30
