%TF.GenerationSoftware,KiCad,Pcbnew,8.0.0-8.0.0-1~ubuntu22.04.1*%
%TF.CreationDate,2024-03-19T22:30:41+08:00*%
%TF.ProjectId,ble_midi_hardware,626c655f-6d69-4646-995f-686172647761,rev?*%
%TF.SameCoordinates,Original*%
%TF.FileFunction,Soldermask,Bot*%
%TF.FilePolarity,Negative*%
%FSLAX46Y46*%
G04 Gerber Fmt 4.6, Leading zero omitted, Abs format (unit mm)*
G04 Created by KiCad (PCBNEW 8.0.0-8.0.0-1~ubuntu22.04.1) date 2024-03-19 22:30:41*
%MOMM*%
%LPD*%
G01*
G04 APERTURE LIST*
%ADD10R,1.700000X1.700000*%
%ADD11O,1.700000X1.700000*%
G04 APERTURE END LIST*
D10*
%TO.C,J2*%
X107200000Y-62240000D03*
D11*
X107200000Y-64780000D03*
X107200000Y-67320000D03*
X107200000Y-69860000D03*
X107200000Y-72400000D03*
X107200000Y-74940000D03*
X107200000Y-77480000D03*
X107200000Y-80020000D03*
X107200000Y-82560000D03*
X107200000Y-85100000D03*
X107200000Y-87640000D03*
X107200000Y-90180000D03*
X107200000Y-92720000D03*
X107200000Y-95260000D03*
X107200000Y-97800000D03*
%TD*%
D10*
%TO.C,J3*%
X131200000Y-62240000D03*
D11*
X131200000Y-64780000D03*
X131200000Y-67320000D03*
X131200000Y-69860000D03*
X131200000Y-72400000D03*
X131200000Y-74940000D03*
X131200000Y-77480000D03*
X131200000Y-80020000D03*
X131200000Y-82560000D03*
X131200000Y-85100000D03*
X131200000Y-87640000D03*
X131200000Y-90180000D03*
X131200000Y-92720000D03*
X131200000Y-95260000D03*
X131200000Y-97800000D03*
%TD*%
D10*
%TO.C,J1*%
X146710400Y-112623600D03*
D11*
X149250400Y-112623600D03*
%TD*%
D10*
%TO.C,J4*%
X137205000Y-110350000D03*
D11*
X134665000Y-110350000D03*
X132125000Y-110350000D03*
X129585000Y-110350000D03*
X127045000Y-110350000D03*
X124505000Y-110350000D03*
X121965000Y-110350000D03*
X119425000Y-110350000D03*
X116885000Y-110350000D03*
X114345000Y-110350000D03*
X111805000Y-110350000D03*
X109265000Y-110350000D03*
X106725000Y-110350000D03*
X104185000Y-110350000D03*
X101645000Y-110350000D03*
X99105000Y-110350000D03*
%TD*%
M02*
