%TF.GenerationSoftware,KiCad,Pcbnew,8.0.0-8.0.0-1~ubuntu22.04.1*%
%TF.CreationDate,2024-03-19T22:17:24+08:00*%
%TF.ProjectId,Water_Flowering_hardware,57617465-725f-4466-9c6f-776572696e67,rev?*%
%TF.SameCoordinates,Original*%
%TF.FileFunction,Legend,Bot*%
%TF.FilePolarity,Positive*%
%FSLAX46Y46*%
G04 Gerber Fmt 4.6, Leading zero omitted, Abs format (unit mm)*
G04 Created by KiCad (PCBNEW 8.0.0-8.0.0-1~ubuntu22.04.1) date 2024-03-19 22:17:24*
%MOMM*%
%LPD*%
G01*
G04 APERTURE LIST*
%ADD10C,0.150000*%
%ADD11C,0.120000*%
G04 APERTURE END LIST*
D10*
X140954819Y-123083333D02*
X140478628Y-122750000D01*
X140954819Y-122511905D02*
X139954819Y-122511905D01*
X139954819Y-122511905D02*
X139954819Y-122892857D01*
X139954819Y-122892857D02*
X140002438Y-122988095D01*
X140002438Y-122988095D02*
X140050057Y-123035714D01*
X140050057Y-123035714D02*
X140145295Y-123083333D01*
X140145295Y-123083333D02*
X140288152Y-123083333D01*
X140288152Y-123083333D02*
X140383390Y-123035714D01*
X140383390Y-123035714D02*
X140431009Y-122988095D01*
X140431009Y-122988095D02*
X140478628Y-122892857D01*
X140478628Y-122892857D02*
X140478628Y-122511905D01*
X140288152Y-123940476D02*
X140954819Y-123940476D01*
X139907200Y-123702381D02*
X140621485Y-123464286D01*
X140621485Y-123464286D02*
X140621485Y-124083333D01*
X140859580Y-119333333D02*
X140907200Y-119285714D01*
X140907200Y-119285714D02*
X140954819Y-119142857D01*
X140954819Y-119142857D02*
X140954819Y-119047619D01*
X140954819Y-119047619D02*
X140907200Y-118904762D01*
X140907200Y-118904762D02*
X140811961Y-118809524D01*
X140811961Y-118809524D02*
X140716723Y-118761905D01*
X140716723Y-118761905D02*
X140526247Y-118714286D01*
X140526247Y-118714286D02*
X140383390Y-118714286D01*
X140383390Y-118714286D02*
X140192914Y-118761905D01*
X140192914Y-118761905D02*
X140097676Y-118809524D01*
X140097676Y-118809524D02*
X140002438Y-118904762D01*
X140002438Y-118904762D02*
X139954819Y-119047619D01*
X139954819Y-119047619D02*
X139954819Y-119142857D01*
X139954819Y-119142857D02*
X140002438Y-119285714D01*
X140002438Y-119285714D02*
X140050057Y-119333333D01*
X140954819Y-120285714D02*
X140954819Y-119714286D01*
X140954819Y-120000000D02*
X139954819Y-120000000D01*
X139954819Y-120000000D02*
X140097676Y-119904762D01*
X140097676Y-119904762D02*
X140192914Y-119809524D01*
X140192914Y-119809524D02*
X140240533Y-119714286D01*
X150761904Y-115704819D02*
X150761904Y-116514342D01*
X150761904Y-116514342D02*
X150714285Y-116609580D01*
X150714285Y-116609580D02*
X150666666Y-116657200D01*
X150666666Y-116657200D02*
X150571428Y-116704819D01*
X150571428Y-116704819D02*
X150380952Y-116704819D01*
X150380952Y-116704819D02*
X150285714Y-116657200D01*
X150285714Y-116657200D02*
X150238095Y-116609580D01*
X150238095Y-116609580D02*
X150190476Y-116514342D01*
X150190476Y-116514342D02*
X150190476Y-115704819D01*
X149190476Y-116704819D02*
X149761904Y-116704819D01*
X149476190Y-116704819D02*
X149476190Y-115704819D01*
X149476190Y-115704819D02*
X149571428Y-115847676D01*
X149571428Y-115847676D02*
X149666666Y-115942914D01*
X149666666Y-115942914D02*
X149761904Y-115990533D01*
D11*
%TO.C,R4*%
X141890000Y-123059420D02*
X141890000Y-123340580D01*
X142910000Y-123059420D02*
X142910000Y-123340580D01*
%TO.C,C1*%
X141890000Y-119315580D02*
X141890000Y-119034420D01*
X142910000Y-119315580D02*
X142910000Y-119034420D01*
D10*
%TO.C,U1*%
X147125000Y-117175000D02*
X152875000Y-117175000D01*
X147125000Y-117400000D02*
X147125000Y-117175000D01*
X147125000Y-125600000D02*
X147125000Y-125825000D01*
X147125000Y-125825000D02*
X152875000Y-125825000D01*
X152875000Y-117400000D02*
X152875000Y-117175000D01*
X152875000Y-125600000D02*
X152875000Y-125825000D01*
D11*
X153375000Y-117425000D02*
X153135000Y-117095000D01*
X153615000Y-117095000D01*
X153375000Y-117425000D01*
G36*
X153375000Y-117425000D02*
G01*
X153135000Y-117095000D01*
X153615000Y-117095000D01*
X153375000Y-117425000D01*
G37*
%TD*%
M02*
