M48
; DRILL file {KiCad 8.0.0-8.0.0-1~ubuntu22.04.1} date 2024-03-19T22:17:13+0800
; FORMAT={-:-/ absolute / inch / decimal}
; #@! TF.CreationDate,2024-03-19T22:17:13+08:00
; #@! TF.GenerationSoftware,Kicad,Pcbnew,8.0.0-8.0.0-1~ubuntu22.04.1
; #@! TF.FileFunction,Plated,1,2,PTH
FMAT,2
INCH
; #@! TA.AperFunction,Plated,PTH,ViaDrill
T1C0.0157
; #@! TA.AperFunction,Plated,PTH,ComponentDrill
T2C0.0374
; #@! TA.AperFunction,Plated,PTH,ComponentDrill
T3C0.0394
; #@! TA.AperFunction,Plated,PTH,ComponentDrill
T4C0.0512
%
G90
G05
T1
X5.6693Y-4.9213
X5.8031Y-4.5276
X5.8661Y-4.7087
X5.8959Y-4.7372
X6.0472Y-4.5433
X6.0866Y-4.4252
X6.1181Y-4.685
X6.122Y-4.7638
X6.1516Y-4.7933
X6.1732Y-4.6457
X6.1811Y-4.8327
X6.6441Y-4.6079
X6.6567Y-4.1169
X6.7618Y-5.0886
X7.0079Y-5.0492
X7.0461Y-4.8122
X7.1248Y-3.9882
X7.2079Y-4.2937
X7.428Y-4.3437
X7.5197Y-5.2067
T2
X6.5945Y-4.998
X6.6929Y-4.998
X6.7913Y-4.998
X6.8898Y-4.998
X7.1555Y-4.9902
X7.2539Y-4.9902
X7.3524Y-4.9902
T3
X5.4071Y-4.2165
X5.4071Y-4.3165
X5.4071Y-4.4165
X5.4071Y-4.5165
X5.4071Y-4.6165
X5.4071Y-4.7165
X5.4071Y-4.8165
X5.4071Y-4.9165
X6.3071Y-4.2165
X6.3071Y-4.3165
X6.3071Y-4.4165
X6.3071Y-4.5165
X6.3071Y-4.6165
X6.3071Y-4.7165
X6.3071Y-4.8165
X6.3071Y-4.9165
X7.3799Y-4.1414
X7.4783Y-4.1414
T4
X6.528Y-4.0618
X6.528Y-4.5421
X6.7642Y-3.9831
X7.0004Y-4.0618
X7.0004Y-4.5421
T3
G00X7.8098Y-4.7429
M15
G01X7.9122Y-4.7429
M16
G05
G00X7.8177Y-4.9909
M15
G01X7.9043Y-4.9909
M16
G05
G00X8.05Y-4.8138
M15
G01X8.05Y-4.9004
M16
G05
M30
