%TF.GenerationSoftware,KiCad,Pcbnew,8.0.0-8.0.0-1~ubuntu22.04.1*%
%TF.CreationDate,2024-03-19T22:17:22+08:00*%
%TF.ProjectId,Water_Flowering_hardware,57617465-725f-4466-9c6f-776572696e67,rev?*%
%TF.SameCoordinates,Original*%
%TF.FileFunction,Copper,L2,Bot*%
%TF.FilePolarity,Positive*%
%FSLAX46Y46*%
G04 Gerber Fmt 4.6, Leading zero omitted, Abs format (unit mm)*
G04 Created by KiCad (PCBNEW 8.0.0-8.0.0-1~ubuntu22.04.1) date 2024-03-19 22:17:22*
%MOMM*%
%LPD*%
G01*
G04 APERTURE LIST*
G04 Aperture macros list*
%AMRoundRect*
0 Rectangle with rounded corners*
0 $1 Rounding radius*
0 $2 $3 $4 $5 $6 $7 $8 $9 X,Y pos of 4 corners*
0 Add a 4 corners polygon primitive as box body*
4,1,4,$2,$3,$4,$5,$6,$7,$8,$9,$2,$3,0*
0 Add four circle primitives for the rounded corners*
1,1,$1+$1,$2,$3*
1,1,$1+$1,$4,$5*
1,1,$1+$1,$6,$7*
1,1,$1+$1,$8,$9*
0 Add four rect primitives between the rounded corners*
20,1,$1+$1,$2,$3,$4,$5,0*
20,1,$1+$1,$4,$5,$6,$7,0*
20,1,$1+$1,$6,$7,$8,$9,0*
20,1,$1+$1,$8,$9,$2,$3,0*%
G04 Aperture macros list end*
%TA.AperFunction,ComponentPad*%
%ADD10R,4.600000X2.000000*%
%TD*%
%TA.AperFunction,ComponentPad*%
%ADD11O,4.200000X2.000000*%
%TD*%
%TA.AperFunction,ComponentPad*%
%ADD12O,2.000000X4.200000*%
%TD*%
%TA.AperFunction,ComponentPad*%
%ADD13RoundRect,0.250000X0.600000X0.725000X-0.600000X0.725000X-0.600000X-0.725000X0.600000X-0.725000X0*%
%TD*%
%TA.AperFunction,ComponentPad*%
%ADD14O,1.700000X1.950000*%
%TD*%
%TA.AperFunction,ComponentPad*%
%ADD15R,2.000000X2.000000*%
%TD*%
%TA.AperFunction,ComponentPad*%
%ADD16O,2.000000X1.600000*%
%TD*%
%TA.AperFunction,ComponentPad*%
%ADD17RoundRect,0.250000X-0.600000X-0.750000X0.600000X-0.750000X0.600000X0.750000X-0.600000X0.750000X0*%
%TD*%
%TA.AperFunction,ComponentPad*%
%ADD18O,1.700000X2.000000*%
%TD*%
%TA.AperFunction,ComponentPad*%
%ADD19C,2.400000*%
%TD*%
%TA.AperFunction,ComponentPad*%
%ADD20RoundRect,0.250000X-1.000000X-1.000000X1.000000X-1.000000X1.000000X1.000000X-1.000000X1.000000X0*%
%TD*%
%TA.AperFunction,SMDPad,CuDef*%
%ADD21RoundRect,0.225000X0.250000X-0.225000X0.250000X0.225000X-0.250000X0.225000X-0.250000X-0.225000X0*%
%TD*%
%TA.AperFunction,SMDPad,CuDef*%
%ADD22RoundRect,0.225000X-0.250000X0.225000X-0.250000X-0.225000X0.250000X-0.225000X0.250000X0.225000X0*%
%TD*%
%TA.AperFunction,SMDPad,CuDef*%
%ADD23R,1.750000X0.450000*%
%TD*%
%TA.AperFunction,ViaPad*%
%ADD24C,0.800000*%
%TD*%
%TA.AperFunction,Conductor*%
%ADD25C,0.250000*%
%TD*%
G04 APERTURE END LIST*
D10*
%TO.P,J4,1,Pin_1*%
%TO.N,/GND*%
X199670000Y-120470000D03*
D11*
%TO.P,J4,2,Pin_2*%
%TO.N,/VIN*%
X199670000Y-126770000D03*
D12*
%TO.P,J4,3,Pin_3*%
%TO.N,/GND*%
X204470000Y-123370000D03*
%TD*%
D13*
%TO.P,J1,1,Pin_1*%
%TO.N,/W0*%
X186750000Y-126750000D03*
D14*
%TO.P,J1,2,Pin_2*%
%TO.N,/3.3V*%
X184250000Y-126750000D03*
%TO.P,J1,3,Pin_3*%
%TO.N,/GND*%
X181750000Y-126750000D03*
%TD*%
D15*
%TO.P,U2,1,~{RST}*%
%TO.N,unconnected-(U2-~{RST}-Pad1)*%
X137340000Y-107100000D03*
D16*
%TO.P,U2,2,A0*%
%TO.N,/COM*%
X137340000Y-109640000D03*
%TO.P,U2,3,D0*%
%TO.N,unconnected-(U2-D0-Pad3)*%
X137340000Y-112180000D03*
%TO.P,U2,4,SCK/D5*%
%TO.N,unconnected-(U2-SCK{slash}D5-Pad4)*%
X137340000Y-114720000D03*
%TO.P,U2,5,MISO/D6*%
%TO.N,unconnected-(U2-MISO{slash}D6-Pad5)*%
X137340000Y-117260000D03*
%TO.P,U2,6,MOSI/D7*%
%TO.N,unconnected-(U2-MOSI{slash}D7-Pad6)*%
X137340000Y-119800000D03*
%TO.P,U2,7,CS/D8*%
%TO.N,unconnected-(U2-CS{slash}D8-Pad7)*%
X137340000Y-122340000D03*
%TO.P,U2,8,3V3*%
%TO.N,unconnected-(U2-3V3-Pad8)*%
X137340000Y-124880000D03*
%TO.P,U2,9,5V*%
%TO.N,/5V*%
X160200000Y-124880000D03*
%TO.P,U2,10,GND*%
%TO.N,/GND*%
X160200000Y-122340000D03*
%TO.P,U2,11,D4*%
%TO.N,unconnected-(U2-D4-Pad11)*%
X160200000Y-119800000D03*
%TO.P,U2,12,D3*%
%TO.N,/Water_Out*%
X160200000Y-117260000D03*
%TO.P,U2,13,SDA/D2*%
%TO.N,/S4*%
X160200000Y-114720000D03*
%TO.P,U2,14,SCL/D1*%
%TO.N,/S2*%
X160200000Y-112180000D03*
%TO.P,U2,15,RX*%
%TO.N,/S1*%
X160200000Y-109640000D03*
%TO.P,U2,16,TX*%
%TO.N,/S0*%
X160200000Y-107100000D03*
%TD*%
D13*
%TO.P,J2,1,Pin_1*%
%TO.N,/3.3V*%
X175000000Y-126950000D03*
D14*
%TO.P,J2,2,Pin_2*%
%TO.N,/GND*%
X172500000Y-126950000D03*
%TO.P,J2,3,Pin_3*%
%TO.N,/Soil_D0*%
X170000000Y-126950000D03*
%TO.P,J2,4,Pin_4*%
%TO.N,/Soil_A0*%
X167500000Y-126950000D03*
%TD*%
D17*
%TO.P,J3,1,Pin_1*%
%TO.N,/GND*%
X187450000Y-105192500D03*
D18*
%TO.P,J3,2,Pin_2*%
%TO.N,Net-(J3-Pin_2)*%
X189950000Y-105192500D03*
%TD*%
D19*
%TO.P,K1,11*%
%TO.N,Net-(K1-Pad11)*%
X171810000Y-101170000D03*
%TO.P,K1,12*%
%TO.N,unconnected-(K1-Pad12)*%
X177810000Y-115370000D03*
%TO.P,K1,14*%
%TO.N,Net-(J3-Pin_2)*%
X165810000Y-115370000D03*
D20*
%TO.P,K1,A1*%
%TO.N,Net-(D1-K)*%
X165810000Y-103170000D03*
D19*
%TO.P,K1,A2*%
%TO.N,/GND*%
X177810000Y-103170000D03*
%TD*%
D21*
%TO.P,R4,1*%
%TO.N,Net-(U1-~{E})*%
X142400000Y-123975000D03*
%TO.P,R4,2*%
%TO.N,/GND*%
X142400000Y-122425000D03*
%TD*%
D22*
%TO.P,C1,1*%
%TO.N,/3.3V*%
X142400000Y-118400000D03*
%TO.P,C1,2*%
%TO.N,/GND*%
X142400000Y-119950000D03*
%TD*%
D23*
%TO.P,U1,1,COM*%
%TO.N,/COM*%
X153600000Y-117925000D03*
%TO.P,U1,2,I7*%
%TO.N,unconnected-(U1-I7-Pad2)*%
X153600000Y-118575000D03*
%TO.P,U1,3,I6*%
%TO.N,unconnected-(U1-I6-Pad3)*%
X153600000Y-119225000D03*
%TO.P,U1,4,I5*%
%TO.N,unconnected-(U1-I5-Pad4)*%
X153600000Y-119875000D03*
%TO.P,U1,5,I4*%
%TO.N,unconnected-(U1-I4-Pad5)*%
X153600000Y-120525000D03*
%TO.P,U1,6,I3*%
%TO.N,unconnected-(U1-I3-Pad6)*%
X153600000Y-121175000D03*
%TO.P,U1,7,I2*%
%TO.N,/W0*%
X153600000Y-121825000D03*
%TO.P,U1,8,I1*%
%TO.N,/Soil_D0*%
X153600000Y-122475000D03*
%TO.P,U1,9,I0*%
%TO.N,/Soil_A0*%
X153600000Y-123125000D03*
%TO.P,U1,10,S0*%
%TO.N,/S0*%
X153600000Y-123775000D03*
%TO.P,U1,11,S1*%
%TO.N,/S1*%
X153600000Y-124425000D03*
%TO.P,U1,12,GND*%
%TO.N,/GND*%
X153600000Y-125075000D03*
%TO.P,U1,13,S3*%
%TO.N,/S3*%
X146400000Y-125075000D03*
%TO.P,U1,14,S2*%
%TO.N,/S2*%
X146400000Y-124425000D03*
%TO.P,U1,15,~{E}*%
%TO.N,Net-(U1-~{E})*%
X146400000Y-123775000D03*
%TO.P,U1,16,I15*%
%TO.N,unconnected-(U1-I15-Pad16)*%
X146400000Y-123125000D03*
%TO.P,U1,17,I14*%
%TO.N,unconnected-(U1-I14-Pad17)*%
X146400000Y-122475000D03*
%TO.P,U1,18,I13*%
%TO.N,unconnected-(U1-I13-Pad18)*%
X146400000Y-121825000D03*
%TO.P,U1,19,I12*%
%TO.N,unconnected-(U1-I12-Pad19)*%
X146400000Y-121175000D03*
%TO.P,U1,20,I11*%
%TO.N,unconnected-(U1-I11-Pad20)*%
X146400000Y-120525000D03*
%TO.P,U1,21,I10*%
%TO.N,unconnected-(U1-I10-Pad21)*%
X146400000Y-119875000D03*
%TO.P,U1,22,I9*%
%TO.N,unconnected-(U1-I9-Pad22)*%
X146400000Y-119225000D03*
%TO.P,U1,23,I8*%
%TO.N,unconnected-(U1-I8-Pad23)*%
X146400000Y-118575000D03*
%TO.P,U1,24,VCC*%
%TO.N,/3.3V*%
X146400000Y-117925000D03*
%TD*%
D24*
%TO.N,Net-(K1-Pad11)*%
X169080000Y-104570000D03*
X168760000Y-117040000D03*
X178970000Y-122230000D03*
X188670000Y-110330000D03*
%TO.N,/5V*%
X183080000Y-109060000D03*
%TO.N,/3.3V*%
X178000000Y-128250000D03*
%TO.N,/GND*%
X171750000Y-129250000D03*
%TO.N,/W0*%
X191000000Y-132250000D03*
X155500000Y-121000000D03*
%TO.N,/Soil_D0*%
X156250000Y-121750000D03*
%TO.N,/Soil_A0*%
X157000000Y-122750000D03*
%TO.N,/COM*%
X153600000Y-115400000D03*
%TO.N,/S0*%
X155400000Y-119000000D03*
X149755691Y-120325000D03*
%TO.N,/S1*%
X156800000Y-118000000D03*
X149000000Y-119600000D03*
%TO.N,/S2*%
X154600000Y-112400000D03*
X147400000Y-115000000D03*
X144000000Y-125000000D03*
%TO.N,/Water_Out*%
X180970000Y-101300000D03*
%TD*%
D25*
%TO.N,Net-(K1-Pad11)*%
X169080000Y-104570000D02*
X169080000Y-103900000D01*
X169080000Y-103900000D02*
X171810000Y-101170000D01*
X179130000Y-122390000D02*
X178970000Y-122230000D01*
X184460000Y-122390000D02*
X179130000Y-122390000D01*
X188670000Y-110330000D02*
X188670000Y-118180000D01*
X188670000Y-118180000D02*
X184460000Y-122390000D01*
%TO.N,/5V*%
X183080000Y-109060000D02*
X182430000Y-109710000D01*
X182430000Y-109710000D02*
X179900000Y-109710000D01*
X179900000Y-109710000D02*
X179900000Y-119080000D01*
X179900000Y-119080000D02*
X174100000Y-124880000D01*
X174100000Y-124880000D02*
X160200000Y-124880000D01*
%TO.N,/3.3V*%
X142400000Y-118400000D02*
X142875000Y-117925000D01*
X173750000Y-130000000D02*
X176250000Y-130000000D01*
X144763604Y-130000000D02*
X173750000Y-130000000D01*
X142875000Y-117925000D02*
X146400000Y-117925000D01*
X140000000Y-125236396D02*
X144763604Y-130000000D01*
X173750000Y-130000000D02*
X173500000Y-130000000D01*
X142400000Y-118400000D02*
X142000000Y-118400000D01*
X142400000Y-118400000D02*
X140000000Y-120800000D01*
X178000000Y-128250000D02*
X177999200Y-128250799D01*
X140000000Y-120800000D02*
X140000000Y-125236396D01*
X176250000Y-130000000D02*
X178000000Y-128250000D01*
%TO.N,/GND*%
X142400000Y-119950000D02*
X142400000Y-122425000D01*
X142000000Y-126600000D02*
X141000000Y-125600000D01*
X171750000Y-129250000D02*
X171500000Y-129250000D01*
X153400000Y-126600000D02*
X142000000Y-126600000D01*
X153600000Y-125075000D02*
X153600000Y-126400000D01*
X153600000Y-126400000D02*
X153400000Y-126600000D01*
X158875000Y-123665000D02*
X158875000Y-128875000D01*
X153600000Y-125075000D02*
X155900000Y-125075000D01*
X160200000Y-122340000D02*
X158895000Y-123645000D01*
X141000000Y-123200000D02*
X141775000Y-122425000D01*
X141775000Y-122425000D02*
X142400000Y-122425000D01*
X158875000Y-128875000D02*
X159250000Y-129250000D01*
X141000000Y-125600000D02*
X141000000Y-123200000D01*
X159250000Y-129250000D02*
X171750000Y-129250000D01*
X158875000Y-123665000D02*
X157310000Y-123665000D01*
X157310000Y-123665000D02*
X155900000Y-125075000D01*
X158895000Y-123645000D02*
X158875000Y-123665000D01*
%TO.N,/W0*%
X153600000Y-121825000D02*
X154675000Y-121825000D01*
X190500000Y-126750000D02*
X186750000Y-126750000D01*
X154675000Y-121825000D02*
X155500000Y-121000000D01*
X191000000Y-127250000D02*
X190500000Y-126750000D01*
X191000000Y-132250000D02*
X191000000Y-127250000D01*
%TO.N,/Soil_D0*%
X155175000Y-122575000D02*
X154250000Y-122575000D01*
X155275000Y-122475000D02*
X156250000Y-121750000D01*
X153600000Y-122475000D02*
X155275000Y-122475000D01*
X156000000Y-121750000D02*
X155175000Y-122575000D01*
X156250000Y-121750000D02*
X156000000Y-121750000D01*
X153675000Y-122400000D02*
X153600000Y-122475000D01*
%TO.N,/Soil_A0*%
X156750000Y-123000000D02*
X157000000Y-122750000D01*
X153600000Y-123125000D02*
X155375000Y-123125000D01*
X155375000Y-123125000D02*
X155500000Y-123000000D01*
X155500000Y-123000000D02*
X156750000Y-123000000D01*
%TO.N,Net-(U1-~{E})*%
X142400000Y-123975000D02*
X142600000Y-123775000D01*
X142600000Y-123775000D02*
X146400000Y-123775000D01*
%TO.N,/COM*%
X153600000Y-115400000D02*
X153600000Y-117925000D01*
%TO.N,/S0*%
X160200000Y-105700000D02*
X160200000Y-106845000D01*
X157645000Y-104755000D02*
X159255000Y-104755000D01*
X160200000Y-106845000D02*
X160455000Y-106845000D01*
X151800000Y-123075000D02*
X152500000Y-123775000D01*
X149755691Y-120325000D02*
X149755691Y-121505691D01*
X159255000Y-104755000D02*
X160200000Y-105700000D01*
X152500000Y-123775000D02*
X153600000Y-123775000D01*
X155400000Y-119000000D02*
X155600000Y-118800000D01*
X149755691Y-121505691D02*
X151325000Y-123075000D01*
X151325000Y-123075000D02*
X151800000Y-123075000D01*
X155600000Y-118800000D02*
X155600000Y-106800000D01*
X155600000Y-106800000D02*
X157645000Y-104755000D01*
%TO.N,/S1*%
X151825000Y-124425000D02*
X153600000Y-124425000D01*
X156800000Y-118000000D02*
X156600000Y-118200000D01*
X149000000Y-121600000D02*
X151825000Y-124425000D01*
X156800000Y-118000000D02*
X157000000Y-117800000D01*
X157360000Y-109640000D02*
X160200000Y-109640000D01*
X149000000Y-119600000D02*
X149000000Y-121600000D01*
X157000000Y-117800000D02*
X157000000Y-110000000D01*
X157000000Y-110000000D02*
X157360000Y-109640000D01*
%TO.N,/S2*%
X147400000Y-115000000D02*
X150000000Y-112400000D01*
X144000000Y-124800000D02*
X144000000Y-125000000D01*
X144375000Y-124425000D02*
X144000000Y-124800000D01*
X143800000Y-125000000D02*
X143800000Y-125000000D01*
X144000000Y-125000000D02*
X143800000Y-125000000D01*
X150000000Y-112400000D02*
X154600000Y-112400000D01*
X146400000Y-124425000D02*
X144375000Y-124425000D01*
%TO.N,Net-(J3-Pin_2)*%
X180700000Y-108000000D02*
X187142500Y-108000000D01*
X187142500Y-108000000D02*
X189950000Y-105192500D01*
X173330000Y-115370000D02*
X180700000Y-108000000D01*
X165810000Y-115370000D02*
X173330000Y-115370000D01*
%TO.N,/Water_Out*%
X164510000Y-112950000D02*
X160200000Y-117260000D01*
X174030000Y-112950000D02*
X164510000Y-112950000D01*
X179720000Y-101520000D02*
X176610000Y-101520000D01*
X176610000Y-101520000D02*
X174750000Y-103380000D01*
X179940000Y-101300000D02*
X179720000Y-101520000D01*
X174750000Y-112230000D02*
X174030000Y-112950000D01*
X180970000Y-101300000D02*
X179940000Y-101300000D01*
X174750000Y-103380000D02*
X174750000Y-112230000D01*
X161160000Y-117260000D02*
X160200000Y-117260000D01*
%TD*%
M02*
