%TF.GenerationSoftware,KiCad,Pcbnew,8.0.0-8.0.0-1~ubuntu22.04.1*%
%TF.CreationDate,2024-03-19T22:17:24+08:00*%
%TF.ProjectId,Water_Flowering_hardware,57617465-725f-4466-9c6f-776572696e67,rev?*%
%TF.SameCoordinates,Original*%
%TF.FileFunction,Soldermask,Top*%
%TF.FilePolarity,Negative*%
%FSLAX46Y46*%
G04 Gerber Fmt 4.6, Leading zero omitted, Abs format (unit mm)*
G04 Created by KiCad (PCBNEW 8.0.0-8.0.0-1~ubuntu22.04.1) date 2024-03-19 22:17:24*
%MOMM*%
%LPD*%
G01*
G04 APERTURE LIST*
G04 Aperture macros list*
%AMRoundRect*
0 Rectangle with rounded corners*
0 $1 Rounding radius*
0 $2 $3 $4 $5 $6 $7 $8 $9 X,Y pos of 4 corners*
0 Add a 4 corners polygon primitive as box body*
4,1,4,$2,$3,$4,$5,$6,$7,$8,$9,$2,$3,0*
0 Add four circle primitives for the rounded corners*
1,1,$1+$1,$2,$3*
1,1,$1+$1,$4,$5*
1,1,$1+$1,$6,$7*
1,1,$1+$1,$8,$9*
0 Add four rect primitives between the rounded corners*
20,1,$1+$1,$2,$3,$4,$5,0*
20,1,$1+$1,$4,$5,$6,$7,0*
20,1,$1+$1,$6,$7,$8,$9,0*
20,1,$1+$1,$8,$9,$2,$3,0*%
G04 Aperture macros list end*
%ADD10R,4.600000X2.000000*%
%ADD11O,4.200000X2.000000*%
%ADD12O,2.000000X4.200000*%
%ADD13RoundRect,0.375000X-0.625000X-0.375000X0.625000X-0.375000X0.625000X0.375000X-0.625000X0.375000X0*%
%ADD14RoundRect,0.500000X-0.500000X-1.400000X0.500000X-1.400000X0.500000X1.400000X-0.500000X1.400000X0*%
%ADD15RoundRect,0.250000X1.000000X0.650000X-1.000000X0.650000X-1.000000X-0.650000X1.000000X-0.650000X0*%
%ADD16RoundRect,0.200000X-0.200000X-0.275000X0.200000X-0.275000X0.200000X0.275000X-0.200000X0.275000X0*%
%ADD17RoundRect,0.250000X0.600000X0.725000X-0.600000X0.725000X-0.600000X-0.725000X0.600000X-0.725000X0*%
%ADD18O,1.700000X1.950000*%
%ADD19R,2.000000X2.000000*%
%ADD20O,2.000000X1.600000*%
%ADD21RoundRect,0.225000X0.250000X-0.225000X0.250000X0.225000X-0.250000X0.225000X-0.250000X-0.225000X0*%
%ADD22RoundRect,0.250000X-0.600000X-0.750000X0.600000X-0.750000X0.600000X0.750000X-0.600000X0.750000X0*%
%ADD23O,1.700000X2.000000*%
%ADD24C,2.400000*%
%ADD25RoundRect,0.250000X-1.000000X-1.000000X1.000000X-1.000000X1.000000X1.000000X-1.000000X1.000000X0*%
%ADD26RoundRect,0.150000X0.587500X0.150000X-0.587500X0.150000X-0.587500X-0.150000X0.587500X-0.150000X0*%
G04 APERTURE END LIST*
D10*
%TO.C,J4*%
X199670000Y-120470000D03*
D11*
X199670000Y-126770000D03*
D12*
X204470000Y-123370000D03*
%TD*%
D13*
%TO.C,U4*%
X195150000Y-111900000D03*
X195150000Y-114200000D03*
D14*
X201450000Y-114200000D03*
D13*
X195150000Y-116500000D03*
%TD*%
D15*
%TO.C,D1*%
X186205000Y-111850000D03*
X182205000Y-111850000D03*
%TD*%
D16*
%TO.C,R1*%
X181935000Y-101300000D03*
X183585000Y-101300000D03*
%TD*%
D17*
%TO.C,J1*%
X186750000Y-126750000D03*
D18*
X184250000Y-126750000D03*
X181750000Y-126750000D03*
%TD*%
D16*
%TO.C,R2*%
X176900000Y-98880000D03*
X178550000Y-98880000D03*
%TD*%
D19*
%TO.C,U2*%
X137340000Y-107100000D03*
D20*
X137340000Y-109640000D03*
X137340000Y-112180000D03*
X137340000Y-114720000D03*
X137340000Y-117260000D03*
X137340000Y-119800000D03*
X137340000Y-122340000D03*
X137340000Y-124880000D03*
X160200000Y-124880000D03*
X160200000Y-122340000D03*
X160200000Y-119800000D03*
X160200000Y-117260000D03*
X160200000Y-114720000D03*
X160200000Y-112180000D03*
X160200000Y-109640000D03*
X160200000Y-107100000D03*
%TD*%
D21*
%TO.C,C2*%
X191800000Y-120025000D03*
X191800000Y-118475000D03*
%TD*%
D17*
%TO.C,J2*%
X175000000Y-126950000D03*
D18*
X172500000Y-126950000D03*
X170000000Y-126950000D03*
X167500000Y-126950000D03*
%TD*%
D21*
%TO.C,C4*%
X203900000Y-116975000D03*
X203900000Y-115425000D03*
%TD*%
D13*
%TO.C,U3*%
X195750000Y-102400000D03*
X195750000Y-104700000D03*
D14*
X202050000Y-104700000D03*
D13*
X195750000Y-107000000D03*
%TD*%
D16*
%TO.C,R3*%
X186575000Y-109100000D03*
X184925000Y-109100000D03*
%TD*%
D22*
%TO.C,J3*%
X187450000Y-105192500D03*
D23*
X189950000Y-105192500D03*
%TD*%
D24*
%TO.C,K1*%
X171810000Y-101170000D03*
X177810000Y-115370000D03*
X165810000Y-115370000D03*
D25*
X165810000Y-103170000D03*
D24*
X177810000Y-103170000D03*
%TD*%
D21*
%TO.C,C3*%
X204400000Y-109250000D03*
X204400000Y-107700000D03*
%TD*%
D26*
%TO.C,Q1*%
X182907500Y-106520000D03*
X182907500Y-104620000D03*
X181032500Y-105570000D03*
%TD*%
M02*
